<?xml version="1.0" encoding="utf-8"?>
<!-- Generator: Adobe Illustrator 25.4.1, SVG Export Plug-In . SVG Version: 6.00 Build 0)  -->
<svg version="1.1" id="Layer_1" xmlns="http://www.w3.org/2000/svg" xmlns:xlink="http://www.w3.org/1999/xlink" x="0px" y="0px"
	 viewBox="0 0 389.92 54.17" style="enable-background:new 0 0 389.92 54.17;" xml:space="preserve">
<style type="text/css">
	.st0{fill:#FF5D02;}
	.st1{fill:#1A1A1A;}
</style>
<g>
	<g>
		<path class="st0" d="M21.25,4.28v39.75h-7.64v-9.52H6.82v11.21c0,2.78,1.37,4.17,4.11,4.17h12.94c2.8,0,4.2-1.39,4.2-4.17V4.28
			H21.25z"/>
		<path class="st0" d="M53.07,4.28v39.75h-9.18V4.28h-6.82v41.44c0,2.78,1.37,4.17,4.14,4.17h14.48c2.8,0,4.2-1.39,4.2-4.17V4.28
			H53.07z"/>
		<path class="st0" d="M90.81,18.63V8.42c0-2.76-1.37-4.14-4.14-4.14H72.95c-2.75,0-4.11,1.41-4.11,4.2v10.14
			c0,1.47,0.49,2.68,1.47,3.63L83.99,35.2v8.95h-8.33v-9.29h-6.82v10.86c0,2.78,1.36,4.17,4.11,4.17h13.73
			c2.76,0,4.14-1.39,4.14-4.17V34.86c0-1.54-0.49-2.76-1.49-3.7L75.66,18.27v-8.25h8.33v8.61H90.81z"/>
		<path class="st0" d="M97.8,4.28v6.04h7.53v39.57h6.79V10.32h7.53V4.28H97.8z"/>
		<path class="st0" d="M126.8,4.28v45.61h6.81V4.28H126.8z"/>
		<path class="st0" d="M159.26,4.28v24.83c0,0.8,0.15,1.9,0.44,3.29L148.77,4.28h-5.99v45.61h6.66V24.48c0-0.8-0.15-1.9-0.44-3.3
			l10.93,28.71h5.97V4.28H159.26z"/>
		<path class="st0" d="M213.28,19.15V8.48c0-2.8-1.37-4.2-4.16-4.2h-14.23c-2.7,0-4.04,1.41-4.04,4.2v37.23
			c0,2.78,1.34,4.17,4.04,4.17h14.23c2.78,0,4.16-1.39,4.16-4.17V34.45h-6.79v9.59h-8.82v-33.9h8.82v9.01H213.28z"/>
		<path class="st0" d="M238.23,4.28v39.75h-9.18V4.28h-6.82v41.44c0,2.78,1.37,4.17,4.14,4.17h14.49c2.8,0,4.19-1.39,4.19-4.17V4.28
			H238.23z"/>
		<path class="st0" d="M269.93,29.23c2.26,0,3.73-0.15,4.43-0.44c1.31-0.56,1.95-1.8,1.95-3.73V8.48c0-2.8-1.36-4.2-4.11-4.2h-18.09
			v45.61h6.82V10.14h8.59V24.6h-6.69v4.11l7.51,21.19h7.12L269.93,29.23z"/>
		<path class="st0" d="M285.33,4.28v45.61h6.82V4.28H285.33z"/>
		<path class="st0" d="M308.13,43.85v-14.3h10.27v-5.92h-10.27V10.32h11.93V4.28h-18.73v45.61h18.91v-6.04H308.13z"/>
		<path class="st0" d="M344.49,4.28v39.75h-9.18V4.28h-6.82v41.44c0,2.78,1.37,4.17,4.14,4.17h14.48c2.8,0,4.2-1.39,4.2-4.17V4.28
			H344.49z"/>
		<path class="st0" d="M374.59,26.38l7.98-21.84V4.28h-7.23l-4.58,14.87l-4.53-14.87h-7.3c0,0.13,2.67,7.56,7.98,22.27l-8.51,23.12
			v0.23h7.26l5.04-16.05l5.01,16.05h7.38L374.59,26.38z"/>
	</g>
</g>
</svg>
